vertices
30
normals
16
textures
32
faces
56

v  0.0000 -1.0000 -0.0000
v  0.9010 -1.0000 -0.4339
v  1.0000 -1.0000 -0.0000
v  0.6235 -1.0000 -0.7818
v  0.2225 -1.0000 -0.9749
v  -0.2225 -1.0000 -0.9749
v  -0.6235 -1.0000 -0.7818
v  -0.9010 -1.0000 -0.4339
v  -1.0000 -1.0000 -0.0000
v  -0.9010 -1.0000 0.4339
v  -0.6235 -1.0000 0.7818
v  -0.2225 -1.0000 0.9749
v  0.2225 -1.0000 0.9749
v  0.6235 -1.0000 0.7818
v  0.9010 -1.0000 0.4339
v  0.9010 1.0000 -0.4339
v  1.0000 1.0000 -0.0000
v  0.6235 1.0000 -0.7818
v  0.2225 1.0000 -0.9749
v  -0.2225 1.0000 -0.9749
v  -0.6235 1.0000 -0.7818
v  -0.9010 1.0000 -0.4339
v  -1.0000 1.0000 -0.0000
v  -0.9010 1.0000 0.4339
v  -0.6235 1.0000 0.7818
v  -0.2225 1.0000 0.9749
v  0.2225 1.0000 0.9749
v  0.6235 1.0000 0.7818
v  0.9010 1.0000 0.4339
v  0.0000 1.0000 -0.0000

vn 0.0000 -1.0000 -0.0000
vn 1.0000 0.0000 -0.0000
vn 0.9010 0.0000 -0.4339
vn 0.6235 0.0000 -0.7818
vn 0.2225 0.0000 -0.9749
vn -0.2225 0.0000 -0.9749
vn -0.6235 0.0000 -0.7818
vn -0.9010 0.0000 -0.4339
vn -1.0000 0.0000 -0.0000
vn -0.9010 0.0000 0.4339
vn -0.6235 0.0000 0.7818
vn -0.2225 0.0000 0.9749
vn 0.2225 0.0000 0.9749
vn 0.6235 0.0000 0.7818
vn 0.9010 0.0000 0.4339
vn 0.0000 1.0000 -0.0000

vt 0.5000 0.0000 0.0000
vt 0.8214 0.0000 1.0000
vt 0.7500 0.0000 1.0000
vt 0.8929 0.0000 1.0000
vt 0.9643 0.0000 1.0000
vt 0.0357 0.0000 1.0000
vt -0.0357 0.0000 1.0000
vt 0.1071 0.0000 1.0000
vt 0.1786 0.0000 1.0000
vt 0.2500 0.0000 1.0000
vt 0.3214 0.0000 1.0000
vt 0.3929 0.0000 1.0000
vt 0.4643 0.0000 1.0000
vt 0.5357 0.0000 1.0000
vt 0.6071 0.0000 1.0000
vt 0.6786 0.0000 1.0000
vt 0.8214 1.0000 1.0000
vt 0.7500 1.0000 1.0000
vt 0.8929 1.0000 1.0000
vt 0.9643 1.0000 1.0000
vt 0.0357 1.0000 1.0000
vt -0.0357 1.0000 1.0000
vt 0.1071 1.0000 1.0000
vt 0.1786 1.0000 1.0000
vt 0.2500 1.0000 1.0000
vt 0.3214 1.0000 1.0000
vt 0.3929 1.0000 1.0000
vt 0.4643 1.0000 1.0000
vt 0.5357 1.0000 1.0000
vt 0.6071 1.0000 1.0000
vt 0.6786 1.0000 1.0000
vt 0.5000 1.0000 0.0000

f 1/1/1 2/2/1 3/3/1 
f 1/1/1 4/4/1 2/2/1 
f 1/1/1 5/5/1 4/4/1 
f 1/1/1 6/6/1 5/7/1 
f 1/1/1 7/8/1 6/6/1 
f 1/1/1 8/9/1 7/8/1 
f 1/1/1 9/10/1 8/9/1 
f 1/1/1 10/11/1 9/10/1 
f 1/1/1 11/12/1 10/11/1 
f 1/1/1 12/13/1 11/12/1 
f 1/1/1 13/14/1 12/13/1 
f 1/1/1 14/15/1 13/14/1 
f 1/1/1 15/16/1 14/15/1 
f 1/1/1 3/3/1 15/16/1 
f 3/3/2 16/17/3 17/18/2 
f 3/3/2 2/2/3 16/17/3 
f 2/2/3 18/19/4 16/17/3 
f 2/2/3 4/4/4 18/19/4 
f 4/4/4 19/20/5 18/19/4 
f 4/4/4 5/5/5 19/20/5 
f 5/7/5 20/21/6 19/22/5 
f 5/7/5 6/6/6 20/21/6 
f 6/6/6 21/23/7 20/21/6 
f 6/6/6 7/8/7 21/23/7 
f 7/8/7 22/24/8 21/23/7 
f 7/8/7 8/9/8 22/24/8 
f 8/9/8 23/25/9 22/24/8 
f 8/9/8 9/10/9 23/25/9 
f 9/10/9 24/26/10 23/25/9 
f 9/10/9 10/11/10 24/26/10 
f 10/11/10 25/27/11 24/26/10 
f 10/11/10 11/12/11 25/27/11 
f 11/12/11 26/28/12 25/27/11 
f 11/12/11 12/13/12 26/28/12 
f 12/13/12 27/29/13 26/28/12 
f 12/13/12 13/14/13 27/29/13 
f 13/14/13 28/30/14 27/29/13 
f 13/14/13 14/15/14 28/30/14 
f 14/15/14 29/31/15 28/30/14 
f 14/15/14 15/16/15 29/31/15 
f 15/16/15 17/18/2 29/31/15 
f 15/16/15 3/3/2 17/18/2 
f 30/32/16 17/18/16 16/17/16 
f 30/32/16 16/17/16 18/19/16 
f 30/32/16 18/19/16 19/20/16 
f 30/32/16 19/22/16 20/21/16 
f 30/32/16 20/21/16 21/23/16 
f 30/32/16 21/23/16 22/24/16 
f 30/32/16 22/24/16 23/25/16 
f 30/32/16 23/25/16 24/26/16 
f 30/32/16 24/26/16 25/27/16 
f 30/32/16 25/27/16 26/28/16 
f 30/32/16 26/28/16 27/29/16 
f 30/32/16 27/29/16 28/30/16 
f 30/32/16 28/30/16 29/31/16 
f 30/32/16 29/31/16 17/18/16 